PathFileType	4	(X/Y/Z)	C:/Users/opensim2020/Desktop/walking_exp_matlab/subject01_walking10_straight_03.trc	
DataRate	CameraRate	NumFrames	NumMarkers	Units	OrigDataRate	OrigDataStartFrame	OrigNumFrames	
100.00	100.00	4	43	mm	100.00	3087	317	
Frame#	Time	LFHD			RFHD			LBHD			RBHD			C7			T10			CLAV			STRN			RBAK			LSHO			LUPA			LELB			LFRM			LWRA			LWRB			LFIN			RSHO			RUPA			RELB			RFRM			RWRA			RWRB			RFIN			LASI			RASI			LPSI			RPSI			LTHI			LKNE			LTIB			LANK			LHEE			LTOE			RTHI			RKNE			RTIB			RANK			RHEE			RTOE			*39			*40			*41			*42			
		X1	Y1	Z1	X2	Y2	Z2	X3	Y3	Z3	X4	Y4	Z4	X5	Y5	Z5	X6	Y6	Z6	X7	Y7	Z7	X8	Y8	Z8	X9	Y9	Z9	X10	Y10	Z10	X11	Y11	Z11	X12	Y12	Z12	X13	Y13	Z13	X14	Y14	Z14	X15	Y15	Z15	X16	Y16	Z16	X17	Y17	Z17	X18	Y18	Z18	X19	Y19	Z19	X20	Y20	Z20	X21	Y21	Z21	X22	Y22	Z22	X23	Y23	Z23	X24	Y24	Z24	X25	Y25	Z25	X26	Y26	Z26	X27	Y27	Z27	X28	Y28	Z28	X29	Y29	Z29	X30	Y30	Z30	X31	Y31	Z31	X32	Y32	Z32	X33	Y33	Z33	X34	Y34	Z34	X35	Y35	Z35	X36	Y36	Z36	X37	Y37	Z37	X38	Y38	Z38	X39	Y39	Z39	X40	Y40	Z40	X41	Y41	Z41	X42	Y42	Z42	X43	Y43	Z43	

238	2.370	1413.66833	710.66895	1662.05005	1519.84912	753.10736	1665.84863	1452.88257	596.09912	1629.58350	1565.23315	638.02155	1632.86182	1483.07727	554.83008	1428.10352	1479.92688	518.26398	1134.85486	1476.95398	696.39856	1357.59888	1470.20081	737.63568	1202.51355	1557.12109	501.31268	1232.18884	1318.14795	635.11786	1393.18274	1233.78577	592.08893	1209.98499	1237.63098	563.96509	1062.60486	1209.93958	584.25555	952.12360	1223.12268	644.96954	824.78516	1200.92493	588.94458	829.80359	1191.64734	624.18317	751.04498	1630.39111	637.65082	1384.85022	1733.63562	601.16199	1181.29041	1740.72620	620.09760	1057.25171	1771.37292	682.41711	952.89972	1754.55042	796.63220	869.87524	1791.73096	754.36041	854.74316	1785.67163	814.63348	791.20209	1373.72046	694.07324	929.32556	1591.69885	684.35480	925.95813	1413.87573	505.61731	940.39001	1557.96411	498.71921	947.23669	1301.27478	732.76312	609.69000	1323.04089	762.52094	481.16226	1313.92407	777.46600	297.41507	1361.80188	848.85370	86.08043	1421.07214	825.46552	43.86309	1340.34985	994.53638	98.32807	1630.08411	578.97424	599.64801	1599.98547	561.36884	440.95178	1597.16113	477.39209	284.38611	1537.27551	420.45630	86.42398	1483.37878	369.05014	56.69783	1537.58655	556.32977	35.99757	1499.60583	739.07037	1700.37451	-3102.11938	1972.92383	1023.97064	-3140.69116	2012.58655	1022.09283			 
239	2.380	1411.95459	717.63025	1661.52612	1518.07544	760.11261	1665.25452	1451.24915	603.06976	1628.83411	1563.49011	645.03326	1632.21045	1481.40039	561.88904	1427.35217	1478.63757	525.91742	1133.98376	1475.48132	703.62091	1356.94238	1469.10767	745.08899	1201.94739	1555.79382	507.53870	1231.63440	1316.64160	642.33850	1392.22107	1232.58679	599.25531	1208.90771	1236.54651	571.18512	1061.57031	1208.92371	591.17303	951.04315	1222.08704	651.54205	823.55347	1199.90125	595.53070	828.76025	1190.72498	630.31702	749.93091	1628.78052	644.75250	1384.26855	1732.31665	608.39069	1180.87842	1739.49780	627.42578	1056.88086	1770.13452	689.55530	952.39484	1752.93372	803.59540	869.05286	1790.38489	761.50470	854.09882	1783.99377	821.54852	790.35992	1373.22656	702.22821	928.43713	1591.21863	691.95868	925.33374	1412.65942	513.61493	939.78674	1556.75623	506.32440	946.82611	1301.57605	741.49707	609.11261	1323.23120	771.06958	480.61389	1313.96643	785.47583	296.58185	1361.84790	856.08411	85.11504	1421.51099	832.47638	42.87506	1341.18347	1001.90369	96.99393	1629.71716	584.68823	599.22717	1599.85132	565.92755	440.74210	1596.96826	480.24057	285.07803	1537.45264	421.03970	87.70280	1483.60876	369.57590	58.17817	1537.65710	556.41669	35.98413	1497.83521	746.03351	1699.76282	-3101.98071	1973.05469	1023.45630	-3140.67847	2012.63269	1022.09045			 
240	2.390	1410.05530	724.59308	1660.93042	1516.26685	767.13904	1664.71863	1449.42542	610.14502	1628.10608	1561.71252	652.09357	1631.55444	1479.71033	569.17438	1426.58362	1477.38062	533.29431	1133.36230	1473.92810	710.93353	1356.32385	1467.85547	752.61847	1201.36719	1554.24622	516.02960	1230.66882	1315.00854	649.58069	1391.28699	1231.23010	606.60388	1207.79785	1235.39685	578.58978	1060.64404	1207.83777	598.30206	950.00482	1220.99817	658.47729	822.38934	1198.86963	602.39648	827.65381	1189.86609	636.63098	748.71826	1627.23657	651.93195	1383.87097	1730.92798	615.70947	1180.50012	1738.11426	634.67261	1056.43811	1768.82922	696.57690	951.88190	1751.26221	810.31744	868.08331	1789.25574	768.45203	853.56024	1782.10498	828.04059	789.11963	1372.69324	710.57532	927.59937	1590.95129	699.31024	924.41046	1411.45374	521.76428	939.09302	1555.34155	514.06775	946.43738	1302.05457	750.51953	608.57220	1323.38806	779.71234	480.00449	1314.15112	793.03894	295.65860	1362.37769	862.20068	83.65292	1421.58496	837.87439	41.62046	1342.25708	1008.08649	94.68804	1629.48169	590.60114	598.98560	1599.83582	570.62561	440.42557	1596.84851	483.07721	285.94724	1537.74390	421.88602	89.01912	1483.88684	369.83890	60.33295	1537.68481	556.51697	35.90691	1495.94373	752.98877	1699.19482	-3101.98267	1973.15308	1023.55902	-3140.57324	2012.48535	1021.96960			 
241	2.400	1408.18774	731.62543	1660.19910	1514.34180	774.14978	1664.16760	1447.58154	617.18054	1627.37024	1559.78137	659.14233	1630.89429	1477.99023	576.42816	1425.83728	1475.91223	541.48535	1132.31006	1472.30859	718.31512	1355.75146	1466.54517	760.26489	1200.84351	1552.68982	522.30786	1230.23560	1313.25452	656.91364	1390.35510	1229.76575	614.05103	1206.69861	1234.23071	585.95386	1059.50708	1206.65027	605.63434	948.89807	1219.83875	665.66040	821.20599	1197.80383	609.56665	826.60986	1188.81787	643.59082	747.57642	1625.40784	659.16333	1383.25037	1729.35718	622.95483	1180.07947	1736.68677	641.87231	1056.08093	1767.46277	703.48102	951.31659	1749.57080	816.88110	867.00470	1788.04163	775.25659	852.97119	1780.30493	834.30988	787.92517	1372.11194	719.15479	926.76678	1590.37097	706.95978	923.80518	1410.22009	530.11517	938.39368	1554.12439	521.89844	945.94281	1302.48035	759.74866	608.04596	1323.54089	788.33081	479.35162	1314.21143	800.02637	294.42972	1362.77283	866.81403	81.97365	1421.81885	841.85132	40.01880	1343.63806	1012.88391	91.68187	1629.26672	596.75665	598.82684	1599.66235	575.37402	440.42935	1596.67969	486.15677	286.79160	1538.00464	422.55972	90.56879	1484.08936	370.40894	62.34933	1537.81287	556.64850	35.95083	1494.06055	759.94708	1698.64905	-3101.89868	1973.18579	1023.49127	-3140.67065	2012.51965	1021.96143			 
